<?xml version="1.0" encoding="UTF-8" standalone="no"?>
<!-- Created with Inkscape (http://www.inkscape.org/) -->

<svg
   xmlns:dc="http://purl.org/dc/elements/1.1/"
   xmlns:cc="http://creativecommons.org/ns#"
   xmlns:rdf="http://www.w3.org/1999/02/22-rdf-syntax-ns#"
   xmlns:svg="http://www.w3.org/2000/svg"
   xmlns="http://www.w3.org/2000/svg"
   xmlns:sodipodi="http://sodipodi.sourceforge.net/DTD/sodipodi-0.dtd"
   xmlns:inkscape="http://www.inkscape.org/namespaces/inkscape"
   id="svg2"
   version="1.1"
   inkscape:version="0.91 r13725"
   xml:space="preserve"
   width="312.5"
   height="253.97263"
   viewBox="0 0 312.5 253.97263"
   sodipodi:docname="icon-twitter.svg"><metadata
     id="metadata8"><rdf:RDF><cc:Work
         rdf:about=""><dc:format>image/svg+xml</dc:format><dc:type
           rdf:resource="http://purl.org/dc/dcmitype/StillImage" /><dc:title></dc:title></cc:Work></rdf:RDF></metadata><defs
     id="defs6" /><sodipodi:namedview
     pagecolor="#ffffff"
     bordercolor="#666666"
     borderopacity="1"
     objecttolerance="10"
     gridtolerance="10"
     guidetolerance="10"
     inkscape:pageopacity="0"
     inkscape:pageshadow="2"
     inkscape:window-width="1108"
     inkscape:window-height="682"
     id="namedview4"
     showgrid="false"
     inkscape:zoom="0.472"
     inkscape:cx="156.25"
     inkscape:cy="126.98637"
     inkscape:window-x="503"
     inkscape:window-y="134"
     inkscape:window-maximized="0"
     inkscape:current-layer="g10"
     fit-margin-top="0"
     fit-margin-left="0"
     fit-margin-right="0"
     fit-margin-bottom="0" /><g
     id="g10"
     inkscape:groupmode="layer"
     inkscape:label="ink_ext_XXXXXX"
     transform="matrix(1.25,0,0,-1.25,-93.75,376.98625)"><g
       id="g12"
       transform="scale(0.1,0.1)"><path
         d="m 1536.23,984.109 c 943.44,0 1459.36,781.611 1459.36,1459.361 0,22.21 -0.45,44.32 -1.47,66.31 100.14,72.39 187.2,162.72 255.88,265.57 -91.91,-40.82 -190.81,-68.34 -294.56,-80.74 105.9,63.48 187.2,163.96 225.54,283.72 -99.12,-58.75 -208.85,-101.48 -325.68,-124.49 -93.59,99.69 -226.89,162.05 -374.39,162.05 -283.28,0 -512.99,-229.71 -512.99,-512.88 0,-40.26 4.51,-79.39 13.3,-116.95 -426.27,21.43 -804.27,225.54 -1057.216,535.89 -44.094,-75.78 -69.469,-163.86 -69.469,-257.79 0,-177.96 90.559,-335.05 228.245,-426.95 -84.124,2.59 -163.175,25.71 -232.303,64.17 -0.114,-2.14 -0.114,-4.29 -0.114,-6.54 0,-248.44 176.827,-455.82 411.497,-502.85 -43.07,-11.72 -88.41,-18.04 -135.21,-18.04 -33.04,0 -65.18,3.27 -96.42,9.25 65.3,-203.78 254.64,-352.07 479.16,-356.25 -175.58,-137.57 -396.72,-219.55 -637.035,-219.55 -41.386,0 -82.21,2.36 -122.355,7.1 227.004,-145.47 496.53,-230.391 786.23,-230.391"
         style="fill:#569cda;fill-opacity:1;fill-rule:nonzero;stroke:none"
         id="path14"
         inkscape:connector-curvature="0" /></g></g></svg>